<svg width="100" height="100" viewBox="0 0 100 100" fill="none" xmlns="http://www.w3.org/2000/svg">
<path d="M58.6921 65.2306L58.7018 72.4709L82.8971 53.3976C82.8624 51.1458 82.9317 48.5507 82.8971 46.2989L58.7018 27.2256L58.7212 34.5317L78.5803 49.8167L58.6921 65.2306ZM41.6588 34.4511L41.6491 27.2109L17.4537 46.2841C17.4884 48.536 17.4191 51.131 17.4537 53.3829L41.649 72.4561L41.6296 65.15L21.7705 49.865L41.6588 34.4511ZM99.5062 49.8335C99.5062 77.1049 77.3984 99.2127 50.127 99.2127C22.8556 99.2127 0.747787 77.1049 0.747787 49.8335C0.747787 22.5621 22.8556 0.454285 50.127 0.454285C77.3984 0.454285 99.5062 22.5621 99.5062 49.8335Z" fill="black"/>
</svg>
